<mxfile host="app.diagrams.net" agent="Mozilla/5.0 (Windows NT 10.0; Win64; x64) AppleWebKit/537.36 (KHTML, like Gecko) Chrome/135.0.0.0 Safari/537.36" version="26.2.13" pages="9">
  <diagram name="Страница — 1" id="eNmSL4AZ1M0IWthTiYDb">
    <mxGraphModel dx="2255" dy="743" grid="1" gridSize="10" guides="1" tooltips="1" connect="1" arrows="1" fold="1" page="1" pageScale="1" pageWidth="827" pageHeight="1169" math="0" shadow="0">
      <root>
        <mxCell id="0" />
        <mxCell id="1" parent="0" />
        <mxCell id="06r3lxKmeO9erEsiT95Y-1" value="Администратор&lt;div&gt;&lt;br&gt;&lt;/div&gt;" style="shape=umlActor;verticalLabelPosition=bottom;verticalAlign=top;html=1;outlineConnect=0;fillColor=#f8cecc;strokeColor=#b85450;" parent="1" vertex="1">
          <mxGeometry x="390" y="320" width="30" height="60" as="geometry" />
        </mxCell>
        <mxCell id="06r3lxKmeO9erEsiT95Y-14" value="Продюсер" style="shape=umlActor;verticalLabelPosition=bottom;verticalAlign=top;html=1;outlineConnect=0;fillColor=#d5e8d4;strokeColor=#82b366;" parent="1" vertex="1">
          <mxGeometry x="290" y="700" width="30" height="60" as="geometry" />
        </mxCell>
        <mxCell id="06r3lxKmeO9erEsiT95Y-15" value="Исполнитель" style="shape=umlActor;verticalLabelPosition=bottom;verticalAlign=top;html=1;outlineConnect=0;fillColor=#fff2cc;strokeColor=#d6b656;" parent="1" vertex="1">
          <mxGeometry x="680" y="640" width="30" height="60" as="geometry" />
        </mxCell>
        <mxCell id="06r3lxKmeO9erEsiT95Y-16" value="Авторизация" style="shape=folder;fontStyle=1;tabWidth=80;tabHeight=30;tabPosition=left;html=1;boundedLbl=1;whiteSpace=wrap;" parent="1" vertex="1">
          <mxGeometry x="338" y="430" width="150" height="80" as="geometry" />
        </mxCell>
        <mxCell id="06r3lxKmeO9erEsiT95Y-17" value="Система жалоб" style="shape=folder;fontStyle=1;tabWidth=80;tabHeight=30;tabPosition=left;html=1;boundedLbl=1;whiteSpace=wrap;" parent="1" vertex="1">
          <mxGeometry x="660" y="430" width="150" height="80" as="geometry" />
        </mxCell>
        <mxCell id="06r3lxKmeO9erEsiT95Y-18" value="Администрирование" style="shape=folder;fontStyle=1;tabWidth=80;tabHeight=30;tabPosition=left;html=1;boundedLbl=1;whiteSpace=wrap;" parent="1" vertex="1">
          <mxGeometry x="20" y="430" width="150" height="80" as="geometry" />
        </mxCell>
        <mxCell id="06r3lxKmeO9erEsiT95Y-19" value="Поиск исполнителя" style="shape=folder;fontStyle=1;tabWidth=80;tabHeight=30;tabPosition=left;html=1;boundedLbl=1;whiteSpace=wrap;" parent="1" vertex="1">
          <mxGeometry x="60" y="680" width="150" height="80" as="geometry" />
        </mxCell>
        <mxCell id="06r3lxKmeO9erEsiT95Y-21" value="Онлайн бронирование студии" style="shape=folder;fontStyle=1;tabWidth=80;tabHeight=30;tabPosition=left;html=1;boundedLbl=1;whiteSpace=wrap;" parent="1" vertex="1">
          <mxGeometry x="500" y="430" width="150" height="80" as="geometry" />
        </mxCell>
        <mxCell id="06r3lxKmeO9erEsiT95Y-22" value="Связь звукоинженера с исполнителем" style="shape=folder;fontStyle=1;tabWidth=80;tabHeight=30;tabPosition=left;html=1;boundedLbl=1;whiteSpace=wrap;" parent="1" vertex="1">
          <mxGeometry x="430" y="680" width="150" height="80" as="geometry" />
        </mxCell>
        <mxCell id="06r3lxKmeO9erEsiT95Y-23" value="Система отзывов" style="shape=folder;fontStyle=1;tabWidth=80;tabHeight=30;tabPosition=left;html=1;boundedLbl=1;whiteSpace=wrap;" parent="1" vertex="1">
          <mxGeometry x="180" y="430" width="150" height="80" as="geometry" />
        </mxCell>
        <mxCell id="06r3lxKmeO9erEsiT95Y-24" value="БД заказов" style="shape=folder;fontStyle=1;tabWidth=80;tabHeight=30;tabPosition=left;html=1;boundedLbl=1;whiteSpace=wrap;" parent="1" vertex="1">
          <mxGeometry x="-140" y="430" width="150" height="80" as="geometry" />
        </mxCell>
        <mxCell id="06r3lxKmeO9erEsiT95Y-30" value="" style="html=1;verticalAlign=bottom;labelBackgroundColor=none;endArrow=none;endFill=0;rounded=0;entryX=0;entryY=0;entryDx=40;entryDy=0;entryPerimeter=0;fillColor=#f8cecc;strokeColor=#b85450;exitX=1;exitY=0.3333333333333333;exitDx=0;exitDy=0;exitPerimeter=0;" parent="1" source="06r3lxKmeO9erEsiT95Y-1" target="06r3lxKmeO9erEsiT95Y-17" edge="1">
          <mxGeometry width="160" relative="1" as="geometry">
            <mxPoint x="180" y="620" as="sourcePoint" />
            <mxPoint x="330" y="640" as="targetPoint" />
          </mxGeometry>
        </mxCell>
        <mxCell id="06r3lxKmeO9erEsiT95Y-31" value="" style="html=1;verticalAlign=bottom;labelBackgroundColor=none;endArrow=none;endFill=0;rounded=0;entryX=0;entryY=0;entryDx=40;entryDy=0;entryPerimeter=0;fillColor=#f8cecc;strokeColor=#b85450;exitX=0;exitY=0.3333333333333333;exitDx=0;exitDy=0;exitPerimeter=0;" parent="1" source="06r3lxKmeO9erEsiT95Y-1" target="06r3lxKmeO9erEsiT95Y-24" edge="1">
          <mxGeometry width="160" relative="1" as="geometry">
            <mxPoint x="126" y="621" as="sourcePoint" />
            <mxPoint x="88" y="720" as="targetPoint" />
          </mxGeometry>
        </mxCell>
        <mxCell id="06r3lxKmeO9erEsiT95Y-32" style="rounded=0;orthogonalLoop=1;jettySize=auto;html=1;entryX=0;entryY=0;entryDx=40;entryDy=0;entryPerimeter=0;endArrow=none;endFill=0;fillColor=#f8cecc;strokeColor=#b85450;exitX=0;exitY=0.3333333333333333;exitDx=0;exitDy=0;exitPerimeter=0;" parent="1" source="06r3lxKmeO9erEsiT95Y-1" target="06r3lxKmeO9erEsiT95Y-18" edge="1">
          <mxGeometry relative="1" as="geometry">
            <mxPoint x="146" y="536" as="sourcePoint" />
          </mxGeometry>
        </mxCell>
        <mxCell id="06r3lxKmeO9erEsiT95Y-34" style="rounded=0;orthogonalLoop=1;jettySize=auto;html=1;entryX=0;entryY=0;entryDx=40;entryDy=0;entryPerimeter=0;endArrow=none;endFill=0;fillColor=#f8cecc;strokeColor=#b85450;exitX=0.5;exitY=0.5;exitDx=0;exitDy=0;exitPerimeter=0;" parent="1" source="06r3lxKmeO9erEsiT95Y-1" target="06r3lxKmeO9erEsiT95Y-16" edge="1">
          <mxGeometry relative="1" as="geometry">
            <mxPoint x="398" y="403" as="sourcePoint" />
            <mxPoint x="265" y="480" as="targetPoint" />
          </mxGeometry>
        </mxCell>
        <mxCell id="06r3lxKmeO9erEsiT95Y-36" style="rounded=0;orthogonalLoop=1;jettySize=auto;html=1;entryX=0.5;entryY=1;entryDx=0;entryDy=0;entryPerimeter=0;endArrow=none;endFill=0;fillColor=#d5e8d4;strokeColor=#82b366;exitX=0;exitY=0.3333333333333333;exitDx=0;exitDy=0;exitPerimeter=0;" parent="1" source="06r3lxKmeO9erEsiT95Y-14" target="06r3lxKmeO9erEsiT95Y-23" edge="1">
          <mxGeometry relative="1" as="geometry">
            <mxPoint x="420" y="620" as="sourcePoint" />
          </mxGeometry>
        </mxCell>
        <mxCell id="06r3lxKmeO9erEsiT95Y-37" style="rounded=0;orthogonalLoop=1;jettySize=auto;html=1;entryX=0;entryY=0;entryDx=40;entryDy=0;entryPerimeter=0;endArrow=none;endFill=0;fillColor=#f8cecc;strokeColor=#b85450;exitX=1;exitY=0.3333333333333333;exitDx=0;exitDy=0;exitPerimeter=0;" parent="1" source="06r3lxKmeO9erEsiT95Y-1" target="06r3lxKmeO9erEsiT95Y-21" edge="1">
          <mxGeometry relative="1" as="geometry">
            <mxPoint x="180" y="560" as="sourcePoint" />
            <mxPoint x="423" y="480" as="targetPoint" />
          </mxGeometry>
        </mxCell>
        <mxCell id="06r3lxKmeO9erEsiT95Y-38" style="rounded=0;orthogonalLoop=1;jettySize=auto;html=1;entryX=0.5;entryY=1;entryDx=0;entryDy=0;entryPerimeter=0;endArrow=none;endFill=0;fillColor=#d5e8d4;strokeColor=#82b366;exitX=1;exitY=0.3333333333333333;exitDx=0;exitDy=0;exitPerimeter=0;" parent="1" source="06r3lxKmeO9erEsiT95Y-14" target="06r3lxKmeO9erEsiT95Y-16" edge="1">
          <mxGeometry relative="1" as="geometry">
            <mxPoint x="414" y="550" as="sourcePoint" />
            <mxPoint x="412.9999999999998" y="854.9999999999998" as="targetPoint" />
          </mxGeometry>
        </mxCell>
        <mxCell id="06r3lxKmeO9erEsiT95Y-39" style="rounded=0;orthogonalLoop=1;jettySize=auto;html=1;entryX=0.5;entryY=1;entryDx=0;entryDy=0;entryPerimeter=0;endArrow=none;endFill=0;fillColor=#d5e8d4;strokeColor=#82b366;exitX=1;exitY=0.3333333333333333;exitDx=0;exitDy=0;exitPerimeter=0;" parent="1" source="06r3lxKmeO9erEsiT95Y-14" target="06r3lxKmeO9erEsiT95Y-21" edge="1">
          <mxGeometry relative="1" as="geometry">
            <mxPoint x="423" y="541" as="sourcePoint" />
          </mxGeometry>
        </mxCell>
        <mxCell id="06r3lxKmeO9erEsiT95Y-40" style="rounded=0;orthogonalLoop=1;jettySize=auto;html=1;entryX=0;entryY=0;entryDx=150;entryDy=55;entryPerimeter=0;endArrow=none;endFill=0;fillColor=#d5e8d4;strokeColor=#82b366;exitX=0;exitY=0.3333333333333333;exitDx=0;exitDy=0;exitPerimeter=0;" parent="1" source="06r3lxKmeO9erEsiT95Y-14" target="06r3lxKmeO9erEsiT95Y-19" edge="1">
          <mxGeometry relative="1" as="geometry">
            <mxPoint x="434" y="563" as="sourcePoint" />
          </mxGeometry>
        </mxCell>
        <mxCell id="06r3lxKmeO9erEsiT95Y-41" style="rounded=0;orthogonalLoop=1;jettySize=auto;html=1;entryX=0.5;entryY=1;entryDx=0;entryDy=0;entryPerimeter=0;endArrow=none;endFill=0;fillColor=#d5e8d4;strokeColor=#82b366;exitX=1;exitY=0.3333333333333333;exitDx=0;exitDy=0;exitPerimeter=0;" parent="1" source="06r3lxKmeO9erEsiT95Y-14" target="06r3lxKmeO9erEsiT95Y-17" edge="1">
          <mxGeometry relative="1" as="geometry" />
        </mxCell>
        <mxCell id="06r3lxKmeO9erEsiT95Y-42" style="rounded=0;orthogonalLoop=1;jettySize=auto;html=1;entryX=0.5;entryY=1;entryDx=0;entryDy=0;entryPerimeter=0;endArrow=none;endFill=0;fillColor=#fff2cc;strokeColor=#d6b656;exitX=0;exitY=0.3333333333333333;exitDx=0;exitDy=0;exitPerimeter=0;" parent="1" source="06r3lxKmeO9erEsiT95Y-15" target="06r3lxKmeO9erEsiT95Y-21" edge="1">
          <mxGeometry relative="1" as="geometry">
            <mxPoint x="668" y="536" as="sourcePoint" />
          </mxGeometry>
        </mxCell>
        <mxCell id="06r3lxKmeO9erEsiT95Y-43" style="rounded=0;orthogonalLoop=1;jettySize=auto;html=1;entryX=0.5;entryY=1;entryDx=0;entryDy=0;entryPerimeter=0;endArrow=none;endFill=0;fillColor=#fff2cc;strokeColor=#d6b656;exitX=0;exitY=0.3333333333333333;exitDx=0;exitDy=0;exitPerimeter=0;" parent="1" source="06r3lxKmeO9erEsiT95Y-15" target="06r3lxKmeO9erEsiT95Y-16" edge="1">
          <mxGeometry relative="1" as="geometry">
            <mxPoint x="680" y="660" as="sourcePoint" />
          </mxGeometry>
        </mxCell>
        <mxCell id="06r3lxKmeO9erEsiT95Y-44" style="rounded=0;orthogonalLoop=1;jettySize=auto;html=1;entryX=0;entryY=0;entryDx=0;entryDy=42.5;entryPerimeter=0;endArrow=none;endFill=0;fillColor=#d5e8d4;strokeColor=#82b366;exitX=1;exitY=0.3333333333333333;exitDx=0;exitDy=0;exitPerimeter=0;" parent="1" source="06r3lxKmeO9erEsiT95Y-14" target="06r3lxKmeO9erEsiT95Y-22" edge="1">
          <mxGeometry relative="1" as="geometry" />
        </mxCell>
        <mxCell id="06r3lxKmeO9erEsiT95Y-45" style="rounded=0;orthogonalLoop=1;jettySize=auto;html=1;entryX=0;entryY=0;entryDx=40;entryDy=0;entryPerimeter=0;fillColor=#fff2cc;strokeColor=#d6b656;endArrow=none;endFill=0;exitX=0;exitY=0.3333333333333333;exitDx=0;exitDy=0;exitPerimeter=0;" parent="1" source="06r3lxKmeO9erEsiT95Y-15" target="06r3lxKmeO9erEsiT95Y-22" edge="1">
          <mxGeometry relative="1" as="geometry">
            <mxPoint x="660" y="620" as="sourcePoint" />
          </mxGeometry>
        </mxCell>
        <mxCell id="06r3lxKmeO9erEsiT95Y-46" style="rounded=0;orthogonalLoop=1;jettySize=auto;html=1;entryX=0.5;entryY=1;entryDx=0;entryDy=0;entryPerimeter=0;fillColor=#fff2cc;strokeColor=#d6b656;endArrow=none;endFill=0;exitX=0;exitY=0.3333333333333333;exitDx=0;exitDy=0;exitPerimeter=0;" parent="1" source="06r3lxKmeO9erEsiT95Y-15" target="06r3lxKmeO9erEsiT95Y-23" edge="1">
          <mxGeometry relative="1" as="geometry" />
        </mxCell>
        <mxCell id="06r3lxKmeO9erEsiT95Y-47" style="rounded=0;orthogonalLoop=1;jettySize=auto;html=1;entryX=0.5;entryY=1;entryDx=0;entryDy=0;entryPerimeter=0;endArrow=none;endFill=0;fillColor=#fff2cc;strokeColor=#d6b656;exitX=1;exitY=0.3333333333333333;exitDx=0;exitDy=0;exitPerimeter=0;" parent="1" source="06r3lxKmeO9erEsiT95Y-15" target="06r3lxKmeO9erEsiT95Y-17" edge="1">
          <mxGeometry relative="1" as="geometry" />
        </mxCell>
        <mxCell id="06r3lxKmeO9erEsiT95Y-49" style="rounded=0;orthogonalLoop=1;jettySize=auto;html=1;exitX=0;exitY=0.3333333333333333;exitDx=0;exitDy=0;exitPerimeter=0;entryX=0;entryY=0;entryDx=40;entryDy=0;entryPerimeter=0;endArrow=none;endFill=0;fillColor=#f8cecc;strokeColor=#b85450;" parent="1" source="06r3lxKmeO9erEsiT95Y-1" target="06r3lxKmeO9erEsiT95Y-23" edge="1">
          <mxGeometry relative="1" as="geometry" />
        </mxCell>
      </root>
    </mxGraphModel>
  </diagram>
  <diagram id="-8sN1C4vQd9PWSZW3Ble" name="Авторизация">
    <mxGraphModel dx="985" dy="512" grid="1" gridSize="10" guides="1" tooltips="1" connect="1" arrows="1" fold="1" page="1" pageScale="1" pageWidth="827" pageHeight="1169" math="0" shadow="0">
      <root>
        <mxCell id="0" />
        <mxCell id="1" parent="0" />
        <mxCell id="9MEWgIJLTnsWwhK0TQ6A-1" style="edgeStyle=orthogonalEdgeStyle;rounded=0;orthogonalLoop=1;jettySize=auto;html=1;exitX=0.5;exitY=0.5;exitDx=0;exitDy=0;exitPerimeter=0;entryX=0;entryY=0.5;entryDx=0;entryDy=0;" parent="1" source="9MEWgIJLTnsWwhK0TQ6A-2" target="9MEWgIJLTnsWwhK0TQ6A-3" edge="1">
          <mxGeometry relative="1" as="geometry" />
        </mxCell>
        <mxCell id="9MEWgIJLTnsWwhK0TQ6A-2" value="Пользователь&lt;div&gt;&lt;br&gt;&lt;/div&gt;" style="shape=umlActor;verticalLabelPosition=bottom;verticalAlign=top;html=1;" parent="1" vertex="1">
          <mxGeometry x="90" y="450" width="30" height="60" as="geometry" />
        </mxCell>
        <mxCell id="9MEWgIJLTnsWwhK0TQ6A-3" value="&lt;font style=&quot;font-size: 13px;&quot;&gt;&lt;span style=&quot;font-family: &amp;quot;Times New Roman&amp;quot;, serif;&quot;&gt;&lt;font style=&quot;&quot;&gt;Ввод персональных данных&lt;/font&gt;&lt;/span&gt;&lt;span style=&quot;font-family: &amp;quot;Times New Roman&amp;quot;, serif;&quot;&gt;&amp;nbsp;&lt;/span&gt;&lt;/font&gt;" style="ellipse;html=1;whiteSpace=wrap;" parent="1" vertex="1">
          <mxGeometry x="160" y="450" width="120" height="60" as="geometry" />
        </mxCell>
        <mxCell id="9MEWgIJLTnsWwhK0TQ6A-4" style="edgeStyle=orthogonalEdgeStyle;rounded=0;orthogonalLoop=1;jettySize=auto;html=1;exitX=1;exitY=0.5;exitDx=0;exitDy=0;entryX=0;entryY=0.5;entryDx=0;entryDy=0;" parent="1" source="9MEWgIJLTnsWwhK0TQ6A-5" target="9MEWgIJLTnsWwhK0TQ6A-6" edge="1">
          <mxGeometry relative="1" as="geometry" />
        </mxCell>
        <mxCell id="9MEWgIJLTnsWwhK0TQ6A-5" value="&lt;span style=&quot;font-family: &amp;quot;Times New Roman&amp;quot;, serif;&quot;&gt;&lt;font style=&quot;font-size: 13px;&quot;&gt;Определение роли и прав доступа&lt;/font&gt;&lt;/span&gt;" style="ellipse;html=1;whiteSpace=wrap;" parent="1" vertex="1">
          <mxGeometry x="353" y="450" width="120" height="60" as="geometry" />
        </mxCell>
        <mxCell id="m4S9xFTLhpA4ph6qWrwi-2" value="" style="edgeStyle=orthogonalEdgeStyle;rounded=0;orthogonalLoop=1;jettySize=auto;html=1;" edge="1" parent="1" source="9MEWgIJLTnsWwhK0TQ6A-6" target="m4S9xFTLhpA4ph6qWrwi-1">
          <mxGeometry relative="1" as="geometry" />
        </mxCell>
        <mxCell id="9MEWgIJLTnsWwhK0TQ6A-6" value="&lt;span style=&quot;font-family: &amp;quot;Times New Roman&amp;quot;, serif;&quot;&gt;&lt;font style=&quot;font-size: 13px;&quot;&gt;Идентификация&lt;/font&gt;&lt;/span&gt;" style="ellipse;html=1;whiteSpace=wrap;" parent="1" vertex="1">
          <mxGeometry x="510" y="450" width="120" height="60" as="geometry" />
        </mxCell>
        <mxCell id="9MEWgIJLTnsWwhK0TQ6A-7" value="&lt;font style=&quot;font-size: 11px;&quot;&gt;Если пользователь существует&lt;/font&gt;" style="shape=note2;boundedLbl=1;whiteSpace=wrap;html=1;size=25;verticalAlign=top;align=center;" parent="1" vertex="1">
          <mxGeometry x="260" y="350" width="120" height="60" as="geometry" />
        </mxCell>
        <mxCell id="9MEWgIJLTnsWwhK0TQ6A-8" value="&lt;&lt;Условие&gt;&gt;" style="resizeWidth=1;part=1;strokeColor=none;fillColor=none;align=left;spacingLeft=5;" parent="9MEWgIJLTnsWwhK0TQ6A-7" vertex="1">
          <mxGeometry width="120" height="25" relative="1" as="geometry" />
        </mxCell>
        <mxCell id="9MEWgIJLTnsWwhK0TQ6A-9" style="edgeStyle=orthogonalEdgeStyle;rounded=0;orthogonalLoop=1;jettySize=auto;html=1;entryX=0;entryY=0.5;entryDx=0;entryDy=0;dashed=1;" parent="1" edge="1">
          <mxGeometry relative="1" as="geometry">
            <mxPoint x="283" y="482" as="sourcePoint" />
            <mxPoint x="353" y="482" as="targetPoint" />
          </mxGeometry>
        </mxCell>
        <mxCell id="9MEWgIJLTnsWwhK0TQ6A-10" style="edgeStyle=orthogonalEdgeStyle;rounded=0;orthogonalLoop=1;jettySize=auto;html=1;dashed=1;" parent="1" edge="1">
          <mxGeometry relative="1" as="geometry">
            <mxPoint x="323" y="412" as="targetPoint" />
            <mxPoint x="323" y="480" as="sourcePoint" />
          </mxGeometry>
        </mxCell>
        <mxCell id="9MEWgIJLTnsWwhK0TQ6A-11" value="&lt;font style=&quot;font-size: 7px;&quot;&gt;&amp;lt;&amp;lt;extend&amp;gt;&amp;gt;&lt;/font&gt;" style="text;html=1;align=center;verticalAlign=middle;resizable=0;points=[];autosize=1;strokeColor=none;fillColor=none;" parent="1" vertex="1">
          <mxGeometry x="273" y="460" width="60" height="30" as="geometry" />
        </mxCell>
        <mxCell id="m4S9xFTLhpA4ph6qWrwi-1" value="&lt;font style=&quot;font-size: 13px;&quot; face=&quot;Times New Roman, serif&quot;&gt;Вход в систему&lt;/font&gt;" style="ellipse;html=1;whiteSpace=wrap;" vertex="1" parent="1">
          <mxGeometry x="670" y="450" width="120" height="60" as="geometry" />
        </mxCell>
      </root>
    </mxGraphModel>
  </diagram>
  <diagram id="j-nW3My6BqNapMOn8BDH" name="Отзывы">
    <mxGraphModel dx="1428" dy="743" grid="1" gridSize="10" guides="1" tooltips="1" connect="1" arrows="1" fold="1" page="1" pageScale="1" pageWidth="827" pageHeight="1169" math="0" shadow="0">
      <root>
        <mxCell id="0" />
        <mxCell id="1" parent="0" />
        <mxCell id="GzTBUUPVvxWCWlSPu_SW-1" style="edgeStyle=orthogonalEdgeStyle;rounded=0;orthogonalLoop=1;jettySize=auto;html=1;exitX=0.5;exitY=0.5;exitDx=0;exitDy=0;exitPerimeter=0;entryX=0;entryY=0.5;entryDx=0;entryDy=0;fillColor=#d5e8d4;strokeColor=#82b366;" parent="1" source="GzTBUUPVvxWCWlSPu_SW-2" target="GzTBUUPVvxWCWlSPu_SW-4" edge="1">
          <mxGeometry relative="1" as="geometry" />
        </mxCell>
        <mxCell id="GzTBUUPVvxWCWlSPu_SW-2" value="Продюсер&lt;div&gt;&lt;br&gt;&lt;/div&gt;" style="shape=umlActor;verticalLabelPosition=bottom;verticalAlign=top;html=1;outlineConnect=0;fillColor=#d5e8d4;strokeColor=#82b366;" parent="1" vertex="1">
          <mxGeometry x="80" y="400" width="30" height="60" as="geometry" />
        </mxCell>
        <mxCell id="GzTBUUPVvxWCWlSPu_SW-3" style="rounded=0;orthogonalLoop=1;jettySize=auto;html=1;exitX=1;exitY=0.5;exitDx=0;exitDy=0;entryX=0;entryY=0.5;entryDx=0;entryDy=0;" parent="1" source="GzTBUUPVvxWCWlSPu_SW-4" target="GzTBUUPVvxWCWlSPu_SW-6" edge="1">
          <mxGeometry relative="1" as="geometry" />
        </mxCell>
        <mxCell id="GzTBUUPVvxWCWlSPu_SW-4" value="Зайти на страницу исполнителя" style="ellipse;html=1;whiteSpace=wrap;" parent="1" vertex="1">
          <mxGeometry x="150" y="400" width="120" height="60" as="geometry" />
        </mxCell>
        <mxCell id="GzTBUUPVvxWCWlSPu_SW-5" style="edgeStyle=orthogonalEdgeStyle;rounded=0;orthogonalLoop=1;jettySize=auto;html=1;exitX=1;exitY=0.5;exitDx=0;exitDy=0;entryX=0;entryY=0.5;entryDx=0;entryDy=0;" parent="1" source="GzTBUUPVvxWCWlSPu_SW-6" target="GzTBUUPVvxWCWlSPu_SW-12" edge="1">
          <mxGeometry relative="1" as="geometry">
            <mxPoint x="450" y="500" as="sourcePoint" />
          </mxGeometry>
        </mxCell>
        <mxCell id="GzTBUUPVvxWCWlSPu_SW-6" value="&lt;font&gt;Оставить отзыв о работе&amp;nbsp;&lt;/font&gt;" style="ellipse;html=1;whiteSpace=wrap;" parent="1" vertex="1">
          <mxGeometry x="320" y="470" width="120" height="60" as="geometry" />
        </mxCell>
        <mxCell id="GzTBUUPVvxWCWlSPu_SW-7" style="edgeStyle=orthogonalEdgeStyle;rounded=0;orthogonalLoop=1;jettySize=auto;html=1;entryX=0;entryY=0.5;entryDx=0;entryDy=0;exitX=0.5;exitY=0.5;exitDx=0;exitDy=0;exitPerimeter=0;fillColor=#fff2cc;strokeColor=#d6b656;" parent="1" source="GzTBUUPVvxWCWlSPu_SW-8" target="GzTBUUPVvxWCWlSPu_SW-10" edge="1">
          <mxGeometry relative="1" as="geometry" />
        </mxCell>
        <mxCell id="GzTBUUPVvxWCWlSPu_SW-8" value="Исполнитель" style="shape=umlActor;verticalLabelPosition=bottom;verticalAlign=top;html=1;outlineConnect=0;fillColor=#fff2cc;strokeColor=#d6b656;" parent="1" vertex="1">
          <mxGeometry x="80" y="530" width="30" height="60" as="geometry" />
        </mxCell>
        <mxCell id="GzTBUUPVvxWCWlSPu_SW-9" style="rounded=0;orthogonalLoop=1;jettySize=auto;html=1;entryX=0;entryY=0.5;entryDx=0;entryDy=0;exitX=1;exitY=0.5;exitDx=0;exitDy=0;" parent="1" source="GzTBUUPVvxWCWlSPu_SW-10" target="GzTBUUPVvxWCWlSPu_SW-6" edge="1">
          <mxGeometry relative="1" as="geometry" />
        </mxCell>
        <mxCell id="GzTBUUPVvxWCWlSPu_SW-10" value="Зайти на страницу продюссера" style="ellipse;html=1;whiteSpace=wrap;" parent="1" vertex="1">
          <mxGeometry x="150" y="530" width="120" height="60" as="geometry" />
        </mxCell>
        <mxCell id="GzTBUUPVvxWCWlSPu_SW-11" value="" style="edgeStyle=orthogonalEdgeStyle;rounded=0;orthogonalLoop=1;jettySize=auto;html=1;" parent="1" target="GzTBUUPVvxWCWlSPu_SW-13" edge="1">
          <mxGeometry relative="1" as="geometry">
            <mxPoint x="590" y="500" as="sourcePoint" />
          </mxGeometry>
        </mxCell>
        <mxCell id="GzTBUUPVvxWCWlSPu_SW-12" value="Поставить оценку" style="ellipse;html=1;whiteSpace=wrap;" parent="1" vertex="1">
          <mxGeometry x="480" y="470" width="120" height="60" as="geometry" />
        </mxCell>
        <mxCell id="GzTBUUPVvxWCWlSPu_SW-13" value="Отправить отзыв" style="ellipse;html=1;whiteSpace=wrap;" parent="1" vertex="1">
          <mxGeometry x="640" y="470" width="120" height="60" as="geometry" />
        </mxCell>
        <mxCell id="86XnkG7SGfXqAdFHYSHZ-1" style="rounded=0;orthogonalLoop=1;jettySize=auto;html=1;exitX=1;exitY=0.3333333333333333;exitDx=0;exitDy=0;exitPerimeter=0;entryX=0;entryY=0.5;entryDx=0;entryDy=0;fillColor=#f8cecc;strokeColor=#b85450;" edge="1" parent="1" source="86XnkG7SGfXqAdFHYSHZ-2" target="86XnkG7SGfXqAdFHYSHZ-3">
          <mxGeometry relative="1" as="geometry" />
        </mxCell>
        <mxCell id="86XnkG7SGfXqAdFHYSHZ-2" value="Администратор" style="shape=umlActor;verticalLabelPosition=bottom;verticalAlign=top;html=1;fillColor=#f8cecc;strokeColor=#b85450;" vertex="1" parent="1">
          <mxGeometry x="80" y="300" width="30" height="60" as="geometry" />
        </mxCell>
        <mxCell id="86XnkG7SGfXqAdFHYSHZ-3" value="Просмотр отзывов" style="ellipse;html=1;whiteSpace=wrap;" vertex="1" parent="1">
          <mxGeometry x="150" y="290" width="120" height="60" as="geometry" />
        </mxCell>
        <mxCell id="86XnkG7SGfXqAdFHYSHZ-4" value="&amp;lt;&amp;lt;extend&amp;gt;&amp;gt;" style="html=1;verticalAlign=bottom;labelBackgroundColor=none;endArrow=open;endFill=0;dashed=1;rounded=0;exitX=1;exitY=0.5;exitDx=0;exitDy=0;entryX=0;entryY=0.5;entryDx=0;entryDy=0;" edge="1" parent="1" source="86XnkG7SGfXqAdFHYSHZ-3" target="JZJhXVi6Uti5yANpcp6k-1">
          <mxGeometry width="160" relative="1" as="geometry">
            <mxPoint x="150" y="440" as="sourcePoint" />
            <mxPoint x="350" y="320" as="targetPoint" />
          </mxGeometry>
        </mxCell>
        <mxCell id="86XnkG7SGfXqAdFHYSHZ-5" value="" style="html=1;verticalAlign=bottom;labelBackgroundColor=none;endArrow=open;endFill=0;dashed=1;rounded=0;" edge="1" parent="1">
          <mxGeometry width="160" relative="1" as="geometry">
            <mxPoint x="310" y="320" as="sourcePoint" />
            <mxPoint x="310" y="250" as="targetPoint" />
          </mxGeometry>
        </mxCell>
        <mxCell id="86XnkG7SGfXqAdFHYSHZ-6" value="Отзыв либо ложный, либо нарушает локальные правила приложения" style="shape=note2;boundedLbl=1;whiteSpace=wrap;html=1;size=25;verticalAlign=top;align=center;" vertex="1" parent="1">
          <mxGeometry x="230" y="170" width="160" height="80" as="geometry" />
        </mxCell>
        <mxCell id="86XnkG7SGfXqAdFHYSHZ-7" value="&lt;&lt;Условие&gt;&gt;" style="resizeWidth=1;part=1;strokeColor=none;fillColor=none;align=left;spacingLeft=5;" vertex="1" parent="86XnkG7SGfXqAdFHYSHZ-6">
          <mxGeometry width="160" height="25" relative="1" as="geometry" />
        </mxCell>
        <mxCell id="JZJhXVi6Uti5yANpcp6k-1" value="Удаление отзыва" style="ellipse;html=1;whiteSpace=wrap;" vertex="1" parent="1">
          <mxGeometry x="354" y="290" width="120" height="60" as="geometry" />
        </mxCell>
      </root>
    </mxGraphModel>
  </diagram>
  <diagram id="g4tZHyn--4uByGufQiR8" name="Поиск исполнителей">
    <mxGraphModel dx="2344" dy="1301" grid="1" gridSize="10" guides="1" tooltips="1" connect="1" arrows="1" fold="1" page="1" pageScale="1" pageWidth="827" pageHeight="1169" math="0" shadow="0">
      <root>
        <mxCell id="0" />
        <mxCell id="1" parent="0" />
        <mxCell id="y58ctFea8OSAIv5vhxC7-1" style="edgeStyle=orthogonalEdgeStyle;rounded=0;orthogonalLoop=1;jettySize=auto;html=1;exitX=0.5;exitY=0.5;exitDx=0;exitDy=0;exitPerimeter=0;entryX=0;entryY=0.5;entryDx=0;entryDy=0;fillColor=#d5e8d4;strokeColor=#82b366;" edge="1" parent="1" source="y58ctFea8OSAIv5vhxC7-2" target="y58ctFea8OSAIv5vhxC7-4">
          <mxGeometry relative="1" as="geometry" />
        </mxCell>
        <mxCell id="y58ctFea8OSAIv5vhxC7-2" value="Продюсер" style="shape=umlActor;verticalLabelPosition=bottom;verticalAlign=top;html=1;fillColor=#d5e8d4;strokeColor=#82b366;" vertex="1" parent="1">
          <mxGeometry x="90" y="490" width="30" height="60" as="geometry" />
        </mxCell>
        <mxCell id="y58ctFea8OSAIv5vhxC7-3" value="" style="edgeStyle=orthogonalEdgeStyle;rounded=0;orthogonalLoop=1;jettySize=auto;html=1;" edge="1" parent="1" source="y58ctFea8OSAIv5vhxC7-4" target="y58ctFea8OSAIv5vhxC7-6">
          <mxGeometry relative="1" as="geometry" />
        </mxCell>
        <mxCell id="y58ctFea8OSAIv5vhxC7-4" value="Зайти на страницу поиска" style="ellipse;html=1;whiteSpace=wrap;" vertex="1" parent="1">
          <mxGeometry x="160" y="490" width="120" height="60" as="geometry" />
        </mxCell>
        <mxCell id="y58ctFea8OSAIv5vhxC7-5" value="" style="edgeStyle=orthogonalEdgeStyle;rounded=0;orthogonalLoop=1;jettySize=auto;html=1;" edge="1" parent="1" source="y58ctFea8OSAIv5vhxC7-6" target="y58ctFea8OSAIv5vhxC7-8">
          <mxGeometry relative="1" as="geometry" />
        </mxCell>
        <mxCell id="y58ctFea8OSAIv5vhxC7-6" value="Выставить фильтры по поиску" style="ellipse;html=1;whiteSpace=wrap;" vertex="1" parent="1">
          <mxGeometry x="320" y="490" width="120" height="60" as="geometry" />
        </mxCell>
        <mxCell id="y58ctFea8OSAIv5vhxC7-7" value="" style="edgeStyle=orthogonalEdgeStyle;rounded=0;orthogonalLoop=1;jettySize=auto;html=1;" edge="1" parent="1" source="y58ctFea8OSAIv5vhxC7-8" target="y58ctFea8OSAIv5vhxC7-9">
          <mxGeometry relative="1" as="geometry" />
        </mxCell>
        <mxCell id="y58ctFea8OSAIv5vhxC7-8" value="Выбрать подходящего" style="ellipse;html=1;whiteSpace=wrap;" vertex="1" parent="1">
          <mxGeometry x="480" y="490" width="120" height="60" as="geometry" />
        </mxCell>
        <mxCell id="y58ctFea8OSAIv5vhxC7-9" value="Связаться с помощью чата" style="ellipse;html=1;whiteSpace=wrap;" vertex="1" parent="1">
          <mxGeometry x="630" y="490" width="120" height="60" as="geometry" />
        </mxCell>
      </root>
    </mxGraphModel>
  </diagram>
  <diagram id="V5FlUkP_FmBqSAdYl2kt" name="БД">
    <mxGraphModel dx="2344" dy="1301" grid="1" gridSize="10" guides="1" tooltips="1" connect="1" arrows="1" fold="1" page="1" pageScale="1" pageWidth="827" pageHeight="1169" math="0" shadow="0">
      <root>
        <mxCell id="0" />
        <mxCell id="1" parent="0" />
      </root>
    </mxGraphModel>
  </diagram>
  <diagram id="xIqD8I9NdOra939GeZRx" name="Бронирование студии">
    <mxGraphModel dx="1190" dy="619" grid="1" gridSize="10" guides="1" tooltips="1" connect="1" arrows="1" fold="1" page="1" pageScale="1" pageWidth="827" pageHeight="1169" math="0" shadow="0">
      <root>
        <mxCell id="0" />
        <mxCell id="1" parent="0" />
        <mxCell id="4sTNeOGlFhRSTR4TYO5m-1" style="rounded=0;orthogonalLoop=1;jettySize=auto;html=1;exitX=1;exitY=0.3333333333333333;exitDx=0;exitDy=0;exitPerimeter=0;entryX=0;entryY=0.5;entryDx=0;entryDy=0;fillColor=#fff2cc;strokeColor=#d6b656;" parent="1" source="4sTNeOGlFhRSTR4TYO5m-2" target="4sTNeOGlFhRSTR4TYO5m-3" edge="1">
          <mxGeometry relative="1" as="geometry">
            <mxPoint x="150" y="450" as="sourcePoint" />
          </mxGeometry>
        </mxCell>
        <mxCell id="4sTNeOGlFhRSTR4TYO5m-2" value="Исполнитель" style="shape=umlActor;verticalLabelPosition=bottom;verticalAlign=top;html=1;fillColor=#fff2cc;strokeColor=#d6b656;" parent="1" vertex="1">
          <mxGeometry x="100" y="480" width="30" height="60" as="geometry" />
        </mxCell>
        <mxCell id="4sTNeOGlFhRSTR4TYO5m-3" value="Выбор даты и времени" style="ellipse;html=1;whiteSpace=wrap;" parent="1" vertex="1">
          <mxGeometry x="205" y="420" width="120" height="60" as="geometry" />
        </mxCell>
        <mxCell id="4sTNeOGlFhRSTR4TYO5m-4" value="Бронирование" style="ellipse;html=1;whiteSpace=wrap;" parent="1" vertex="1">
          <mxGeometry x="395" y="420" width="120" height="60" as="geometry" />
        </mxCell>
        <mxCell id="4sTNeOGlFhRSTR4TYO5m-5" value="&amp;lt;&amp;lt;extend&amp;gt;&amp;gt;" style="html=1;verticalAlign=bottom;labelBackgroundColor=none;endArrow=open;endFill=0;dashed=1;rounded=0;exitX=1;exitY=0.5;exitDx=0;exitDy=0;entryX=0;entryY=0.5;entryDx=0;entryDy=0;" parent="1" source="4sTNeOGlFhRSTR4TYO5m-3" target="4sTNeOGlFhRSTR4TYO5m-4" edge="1">
          <mxGeometry width="160" relative="1" as="geometry">
            <mxPoint x="325" y="500" as="sourcePoint" />
            <mxPoint x="485" y="500" as="targetPoint" />
          </mxGeometry>
        </mxCell>
        <mxCell id="4sTNeOGlFhRSTR4TYO5m-6" value="" style="html=1;verticalAlign=bottom;labelBackgroundColor=none;endArrow=none;endFill=0;dashed=1;rounded=0;startFill=0;" parent="1" edge="1">
          <mxGeometry width="160" relative="1" as="geometry">
            <mxPoint x="355" y="450" as="sourcePoint" />
            <mxPoint x="355" y="400" as="targetPoint" />
          </mxGeometry>
        </mxCell>
        <mxCell id="4sTNeOGlFhRSTR4TYO5m-7" value="Условие:&lt;div&gt;Место свободно&lt;/div&gt;" style="shape=note2;boundedLbl=1;whiteSpace=wrap;html=1;size=25;verticalAlign=top;align=center;" parent="1" vertex="1">
          <mxGeometry x="285" y="340" width="130" height="60" as="geometry" />
        </mxCell>
        <mxCell id="xh0mo9-YWLRZrpupfTwU-1" value="Продюсер" style="shape=umlActor;verticalLabelPosition=bottom;verticalAlign=top;html=1;fillColor=#d5e8d4;strokeColor=#82b366;" vertex="1" parent="1">
          <mxGeometry x="430" y="505" width="30" height="60" as="geometry" />
        </mxCell>
        <mxCell id="xh0mo9-YWLRZrpupfTwU-2" value="Отмена брони" style="ellipse;html=1;whiteSpace=wrap;" vertex="1" parent="1">
          <mxGeometry x="205" y="505" width="120" height="60" as="geometry" />
        </mxCell>
        <mxCell id="xh0mo9-YWLRZrpupfTwU-3" value="&amp;lt;&amp;lt;extend&amp;gt;&amp;gt;" style="html=1;verticalAlign=bottom;labelBackgroundColor=none;endArrow=open;endFill=0;dashed=1;rounded=0;exitX=1;exitY=0.3333333333333333;exitDx=0;exitDy=0;entryX=0;entryY=0.5;entryDx=0;entryDy=0;exitPerimeter=0;" edge="1" parent="1" source="4sTNeOGlFhRSTR4TYO5m-2" target="xh0mo9-YWLRZrpupfTwU-2">
          <mxGeometry width="160" relative="1" as="geometry">
            <mxPoint x="100" y="460" as="sourcePoint" />
            <mxPoint x="155" y="560" as="targetPoint" />
          </mxGeometry>
        </mxCell>
        <mxCell id="xh0mo9-YWLRZrpupfTwU-4" value="&amp;lt;&amp;lt;extend&amp;gt;&amp;gt;" style="html=1;verticalAlign=bottom;labelBackgroundColor=none;endArrow=open;endFill=0;dashed=1;rounded=0;exitX=0.5;exitY=0.5;exitDx=0;exitDy=0;entryX=1;entryY=0.5;entryDx=0;entryDy=0;exitPerimeter=0;" edge="1" parent="1" source="xh0mo9-YWLRZrpupfTwU-1" target="xh0mo9-YWLRZrpupfTwU-2">
          <mxGeometry width="160" relative="1" as="geometry">
            <mxPoint x="455" y="565" as="sourcePoint" />
            <mxPoint x="525" y="565" as="targetPoint" />
          </mxGeometry>
        </mxCell>
      </root>
    </mxGraphModel>
  </diagram>
  <diagram id="YUOmVBQXvtmClM35YGkG" name="Связь">
    <mxGraphModel dx="2344" dy="1301" grid="1" gridSize="10" guides="1" tooltips="1" connect="1" arrows="1" fold="1" page="1" pageScale="1" pageWidth="827" pageHeight="1169" math="0" shadow="0">
      <root>
        <mxCell id="0" />
        <mxCell id="1" parent="0" />
        <mxCell id="2QdOYpfJ8IBNJ12dbEWV-1" value="&lt;div&gt;Исполнитель&lt;/div&gt;&lt;div&gt;&lt;br&gt;&lt;/div&gt;" style="shape=umlActor;verticalLabelPosition=bottom;verticalAlign=top;html=1;outlineConnect=0;fillColor=#fff2cc;strokeColor=#d6b656;" vertex="1" parent="1">
          <mxGeometry x="740" y="540" width="30" height="60" as="geometry" />
        </mxCell>
        <mxCell id="2QdOYpfJ8IBNJ12dbEWV-2" value="" style="edgeStyle=orthogonalEdgeStyle;rounded=0;orthogonalLoop=1;jettySize=auto;html=1;" edge="1" parent="1" source="2QdOYpfJ8IBNJ12dbEWV-3" target="2QdOYpfJ8IBNJ12dbEWV-4">
          <mxGeometry relative="1" as="geometry" />
        </mxCell>
        <mxCell id="2QdOYpfJ8IBNJ12dbEWV-3" value="Зайти в чат&amp;nbsp;" style="ellipse;html=1;whiteSpace=wrap;" vertex="1" parent="1">
          <mxGeometry x="354" y="450" width="120" height="60" as="geometry" />
        </mxCell>
        <mxCell id="2QdOYpfJ8IBNJ12dbEWV-4" value="Обсудить правки по проекту" style="ellipse;html=1;whiteSpace=wrap;" vertex="1" parent="1">
          <mxGeometry x="354" y="540" width="120" height="60" as="geometry" />
        </mxCell>
        <mxCell id="2QdOYpfJ8IBNJ12dbEWV-5" value="&amp;lt;&amp;lt;extend&amp;gt;&amp;gt;" style="html=1;verticalAlign=bottom;labelBackgroundColor=none;endArrow=open;endFill=0;dashed=1;rounded=0;exitX=1;exitY=0.3333333333333333;exitDx=0;exitDy=0;exitPerimeter=0;entryX=0;entryY=0.5;entryDx=0;entryDy=0;fillColor=#d5e8d4;strokeColor=#82b366;" edge="1" parent="1" target="2QdOYpfJ8IBNJ12dbEWV-3" source="-qxpgqDi0CQMuwUMLn41-1">
          <mxGeometry width="160" relative="1" as="geometry">
            <mxPoint x="80" y="560" as="sourcePoint" />
            <mxPoint x="490" y="440" as="targetPoint" />
          </mxGeometry>
        </mxCell>
        <mxCell id="2QdOYpfJ8IBNJ12dbEWV-6" value="&amp;lt;&amp;lt;extend&amp;gt;&amp;gt;" style="html=1;verticalAlign=bottom;labelBackgroundColor=none;endArrow=open;endFill=0;dashed=1;rounded=0;exitX=0;exitY=0.3333333333333333;exitDx=0;exitDy=0;exitPerimeter=0;entryX=1;entryY=0.5;entryDx=0;entryDy=0;fillColor=#fff2cc;strokeColor=#d6b656;" edge="1" parent="1" source="2QdOYpfJ8IBNJ12dbEWV-1" target="2QdOYpfJ8IBNJ12dbEWV-3">
          <mxGeometry width="160" relative="1" as="geometry">
            <mxPoint x="460" y="510" as="sourcePoint" />
            <mxPoint x="734" y="430" as="targetPoint" />
          </mxGeometry>
        </mxCell>
        <mxCell id="2QdOYpfJ8IBNJ12dbEWV-7" value="" style="html=1;verticalAlign=bottom;labelBackgroundColor=none;endArrow=none;endFill=0;dashed=1;rounded=0;startFill=0;" edge="1" parent="1">
          <mxGeometry width="160" relative="1" as="geometry">
            <mxPoint x="170" y="530" as="sourcePoint" />
            <mxPoint x="170" y="420" as="targetPoint" />
          </mxGeometry>
        </mxCell>
        <mxCell id="2QdOYpfJ8IBNJ12dbEWV-8" value="Есть вопросы по проекту или по брони студии" style="shape=note2;boundedLbl=1;whiteSpace=wrap;html=1;size=25;verticalAlign=top;align=center;" vertex="1" parent="1">
          <mxGeometry x="90" y="360" width="160" height="60" as="geometry" />
        </mxCell>
        <mxCell id="2QdOYpfJ8IBNJ12dbEWV-9" value="&lt;&lt;Условие&gt;&gt;" style="resizeWidth=1;part=1;strokeColor=none;fillColor=none;align=left;spacingLeft=5;" vertex="1" parent="2QdOYpfJ8IBNJ12dbEWV-8">
          <mxGeometry width="160" height="25" relative="1" as="geometry" />
        </mxCell>
        <mxCell id="2QdOYpfJ8IBNJ12dbEWV-10" value="" style="html=1;verticalAlign=bottom;labelBackgroundColor=none;endArrow=none;endFill=0;dashed=1;rounded=0;startFill=0;" edge="1" parent="1">
          <mxGeometry width="160" relative="1" as="geometry">
            <mxPoint x="650" y="530" as="sourcePoint" />
            <mxPoint x="650" y="420" as="targetPoint" />
          </mxGeometry>
        </mxCell>
        <mxCell id="2QdOYpfJ8IBNJ12dbEWV-11" value="Есть вопросы по проекту или по брони студии" style="shape=note2;boundedLbl=1;whiteSpace=wrap;html=1;size=25;verticalAlign=top;align=center;" vertex="1" parent="1">
          <mxGeometry x="570" y="360" width="160" height="60" as="geometry" />
        </mxCell>
        <mxCell id="2QdOYpfJ8IBNJ12dbEWV-12" value="&lt;&lt;Условие&gt;&gt;" style="resizeWidth=1;part=1;strokeColor=none;fillColor=none;align=left;spacingLeft=5;" vertex="1" parent="2QdOYpfJ8IBNJ12dbEWV-11">
          <mxGeometry width="160" height="25" relative="1" as="geometry" />
        </mxCell>
        <mxCell id="2QdOYpfJ8IBNJ12dbEWV-13" value="Прийти к общему решению&amp;nbsp;" style="ellipse;html=1;whiteSpace=wrap;" vertex="1" parent="1">
          <mxGeometry x="354" y="650" width="120" height="60" as="geometry" />
        </mxCell>
        <mxCell id="2QdOYpfJ8IBNJ12dbEWV-14" value="Исправить проект" style="ellipse;html=1;whiteSpace=wrap;" vertex="1" parent="1">
          <mxGeometry x="354" y="760" width="120" height="60" as="geometry" />
        </mxCell>
        <mxCell id="2QdOYpfJ8IBNJ12dbEWV-15" value="&amp;lt;&amp;lt;include&amp;gt;&amp;gt;" style="html=1;verticalAlign=bottom;labelBackgroundColor=none;endArrow=open;endFill=0;dashed=1;rounded=0;exitX=0.5;exitY=1;exitDx=0;exitDy=0;entryX=0.5;entryY=0;entryDx=0;entryDy=0;" edge="1" parent="1" source="2QdOYpfJ8IBNJ12dbEWV-4" target="2QdOYpfJ8IBNJ12dbEWV-13">
          <mxGeometry width="160" relative="1" as="geometry">
            <mxPoint x="430" y="610" as="sourcePoint" />
            <mxPoint x="590" y="610" as="targetPoint" />
          </mxGeometry>
        </mxCell>
        <mxCell id="2QdOYpfJ8IBNJ12dbEWV-16" value="&amp;lt;&amp;lt;include&amp;gt;&amp;gt;" style="html=1;verticalAlign=bottom;labelBackgroundColor=none;endArrow=open;endFill=0;dashed=1;rounded=0;exitX=0.5;exitY=1;exitDx=0;exitDy=0;entryX=0.5;entryY=0;entryDx=0;entryDy=0;" edge="1" parent="1" source="2QdOYpfJ8IBNJ12dbEWV-13" target="2QdOYpfJ8IBNJ12dbEWV-14">
          <mxGeometry width="160" relative="1" as="geometry">
            <mxPoint x="413" y="690" as="sourcePoint" />
            <mxPoint x="413" y="720" as="targetPoint" />
          </mxGeometry>
        </mxCell>
        <mxCell id="-qxpgqDi0CQMuwUMLn41-1" value="Продюсер&lt;div&gt;&lt;br&gt;&lt;/div&gt;" style="shape=umlActor;verticalLabelPosition=bottom;verticalAlign=top;html=1;outlineConnect=0;fillColor=#d5e8d4;strokeColor=#82b366;" vertex="1" parent="1">
          <mxGeometry x="60" y="540" width="30" height="60" as="geometry" />
        </mxCell>
      </root>
    </mxGraphModel>
  </diagram>
  <diagram id="lkVx8rOF31gR0gMsA8ST" name="Администрирование">
    <mxGraphModel dx="1428" dy="743" grid="1" gridSize="10" guides="1" tooltips="1" connect="1" arrows="1" fold="1" page="1" pageScale="1" pageWidth="827" pageHeight="1169" math="0" shadow="0">
      <root>
        <mxCell id="0" />
        <mxCell id="1" parent="0" />
        <mxCell id="wsJRIzHaAjU8hwcy1u9z-2" style="rounded=0;orthogonalLoop=1;jettySize=auto;html=1;exitX=1;exitY=0.3333333333333333;exitDx=0;exitDy=0;exitPerimeter=0;entryX=0;entryY=0.5;entryDx=0;entryDy=0;fillColor=#f8cecc;strokeColor=#b85450;" parent="1" source="wsJRIzHaAjU8hwcy1u9z-3" target="wsJRIzHaAjU8hwcy1u9z-10" edge="1">
          <mxGeometry relative="1" as="geometry" />
        </mxCell>
        <mxCell id="wsJRIzHaAjU8hwcy1u9z-3" value="Администратор" style="shape=umlActor;verticalLabelPosition=bottom;verticalAlign=top;html=1;fillColor=#f8cecc;strokeColor=#b85450;" parent="1" vertex="1">
          <mxGeometry x="70" y="590" width="30" height="60" as="geometry" />
        </mxCell>
        <mxCell id="wsJRIzHaAjU8hwcy1u9z-10" value="Наблюдение за пользователем" style="ellipse;html=1;whiteSpace=wrap;" parent="1" vertex="1">
          <mxGeometry x="230" y="580" width="120" height="60" as="geometry" />
        </mxCell>
        <mxCell id="wsJRIzHaAjU8hwcy1u9z-11" value="Отправление предупреждения пользователю" style="ellipse;html=1;whiteSpace=wrap;" parent="1" vertex="1">
          <mxGeometry x="430" y="580" width="120" height="60" as="geometry" />
        </mxCell>
        <mxCell id="wsJRIzHaAjU8hwcy1u9z-12" value="&amp;lt;&amp;lt;extend&amp;gt;&amp;gt;" style="html=1;verticalAlign=bottom;labelBackgroundColor=none;endArrow=open;endFill=0;dashed=1;rounded=0;exitX=1;exitY=0.5;exitDx=0;exitDy=0;entryX=0;entryY=0.5;entryDx=0;entryDy=0;" parent="1" source="wsJRIzHaAjU8hwcy1u9z-10" target="wsJRIzHaAjU8hwcy1u9z-11" edge="1">
          <mxGeometry width="160" relative="1" as="geometry">
            <mxPoint x="230" y="730" as="sourcePoint" />
            <mxPoint x="390" y="730" as="targetPoint" />
          </mxGeometry>
        </mxCell>
        <mxCell id="wsJRIzHaAjU8hwcy1u9z-13" value="" style="html=1;verticalAlign=bottom;labelBackgroundColor=none;endArrow=open;endFill=0;dashed=1;rounded=0;" parent="1" edge="1">
          <mxGeometry width="160" relative="1" as="geometry">
            <mxPoint x="390" y="610" as="sourcePoint" />
            <mxPoint x="390" y="540" as="targetPoint" />
          </mxGeometry>
        </mxCell>
        <mxCell id="wsJRIzHaAjU8hwcy1u9z-14" value="Пользователь нарушает правила проекта" style="shape=note2;boundedLbl=1;whiteSpace=wrap;html=1;size=25;verticalAlign=top;align=center;" parent="1" vertex="1">
          <mxGeometry x="310" y="460" width="160" height="80" as="geometry" />
        </mxCell>
        <mxCell id="wsJRIzHaAjU8hwcy1u9z-15" value="&lt;&lt;Условие&gt;&gt;" style="resizeWidth=1;part=1;strokeColor=none;fillColor=none;align=left;spacingLeft=5;" parent="wsJRIzHaAjU8hwcy1u9z-14" vertex="1">
          <mxGeometry width="160" height="25" relative="1" as="geometry" />
        </mxCell>
        <mxCell id="wsJRIzHaAjU8hwcy1u9z-16" value="Удаление пользователя" style="ellipse;html=1;whiteSpace=wrap;" parent="1" vertex="1">
          <mxGeometry x="630" y="580" width="120" height="60" as="geometry" />
        </mxCell>
        <mxCell id="wsJRIzHaAjU8hwcy1u9z-17" value="&amp;lt;&amp;lt;extend&amp;gt;&amp;gt;" style="html=1;verticalAlign=bottom;labelBackgroundColor=none;endArrow=open;endFill=0;dashed=1;rounded=0;exitX=1;exitY=0.5;exitDx=0;exitDy=0;entryX=0;entryY=0.5;entryDx=0;entryDy=0;" parent="1" source="wsJRIzHaAjU8hwcy1u9z-11" target="wsJRIzHaAjU8hwcy1u9z-16" edge="1">
          <mxGeometry width="160" relative="1" as="geometry">
            <mxPoint x="550" y="610" as="sourcePoint" />
            <mxPoint x="630" y="610" as="targetPoint" />
          </mxGeometry>
        </mxCell>
        <mxCell id="wsJRIzHaAjU8hwcy1u9z-18" value="" style="html=1;verticalAlign=bottom;labelBackgroundColor=none;endArrow=open;endFill=0;dashed=1;rounded=0;" parent="1" edge="1">
          <mxGeometry width="160" relative="1" as="geometry">
            <mxPoint x="590" y="610" as="sourcePoint" />
            <mxPoint x="590" y="540" as="targetPoint" />
          </mxGeometry>
        </mxCell>
        <mxCell id="wsJRIzHaAjU8hwcy1u9z-19" value="Пользователь повторно нарушает правила проекта" style="shape=note2;boundedLbl=1;whiteSpace=wrap;html=1;size=25;verticalAlign=top;align=center;" parent="1" vertex="1">
          <mxGeometry x="510" y="460" width="160" height="80" as="geometry" />
        </mxCell>
        <mxCell id="wsJRIzHaAjU8hwcy1u9z-20" value="&lt;&lt;Условие&gt;&gt;" style="resizeWidth=1;part=1;strokeColor=none;fillColor=none;align=left;spacingLeft=5;" parent="wsJRIzHaAjU8hwcy1u9z-19" vertex="1">
          <mxGeometry width="160" height="25" relative="1" as="geometry" />
        </mxCell>
        <mxCell id="wsJRIzHaAjU8hwcy1u9z-21" value="" style="edgeStyle=orthogonalEdgeStyle;rounded=0;orthogonalLoop=1;jettySize=auto;html=1;" parent="1" source="wsJRIzHaAjU8hwcy1u9z-22" target="wsJRIzHaAjU8hwcy1u9z-24" edge="1">
          <mxGeometry relative="1" as="geometry" />
        </mxCell>
        <mxCell id="wsJRIzHaAjU8hwcy1u9z-22" value="&lt;font style=&quot;font-size: 10px;&quot;&gt;Отправления письма о причине блокировке&lt;/font&gt;" style="ellipse;html=1;whiteSpace=wrap;" parent="1" vertex="1">
          <mxGeometry x="630" y="700" width="120" height="60" as="geometry" />
        </mxCell>
        <mxCell id="wsJRIzHaAjU8hwcy1u9z-23" value="&amp;lt;&amp;lt;include&amp;gt;&amp;gt;" style="html=1;verticalAlign=bottom;labelBackgroundColor=none;endArrow=open;endFill=0;dashed=1;rounded=0;exitX=0.5;exitY=1;exitDx=0;exitDy=0;entryX=0.5;entryY=0;entryDx=0;entryDy=0;" parent="1" source="wsJRIzHaAjU8hwcy1u9z-16" target="wsJRIzHaAjU8hwcy1u9z-22" edge="1">
          <mxGeometry width="160" relative="1" as="geometry">
            <mxPoint x="230" y="710" as="sourcePoint" />
            <mxPoint x="390" y="710" as="targetPoint" />
          </mxGeometry>
        </mxCell>
        <mxCell id="wsJRIzHaAjU8hwcy1u9z-24" value="&lt;span style=&quot;font-size: 10px;&quot;&gt;Удаление пользователя из БД&lt;/span&gt;" style="ellipse;html=1;whiteSpace=wrap;" parent="1" vertex="1">
          <mxGeometry x="630" y="800" width="120" height="60" as="geometry" />
        </mxCell>
      </root>
    </mxGraphModel>
  </diagram>
  <diagram id="MeD4ZnIJkuJovAQC2raw" name="Система жалоб">
    <mxGraphModel dx="1428" dy="743" grid="1" gridSize="10" guides="1" tooltips="1" connect="1" arrows="1" fold="1" page="1" pageScale="1" pageWidth="827" pageHeight="1169" math="0" shadow="0">
      <root>
        <mxCell id="0" />
        <mxCell id="1" parent="0" />
        <mxCell id="YSjm4-XNCETCaF8v07B--1" style="edgeStyle=orthogonalEdgeStyle;rounded=0;orthogonalLoop=1;jettySize=auto;html=1;exitX=1;exitY=0.3333333333333333;exitDx=0;exitDy=0;exitPerimeter=0;entryX=0;entryY=0.5;entryDx=0;entryDy=0;fillColor=#f8cecc;strokeColor=#b85450;" parent="1" source="YSjm4-XNCETCaF8v07B--2" target="YSjm4-XNCETCaF8v07B--20" edge="1">
          <mxGeometry relative="1" as="geometry" />
        </mxCell>
        <mxCell id="YSjm4-XNCETCaF8v07B--2" value="Администратор" style="shape=umlActor;verticalLabelPosition=bottom;verticalAlign=top;html=1;fillColor=#f8cecc;strokeColor=#b85450;" parent="1" vertex="1">
          <mxGeometry x="390" y="840" width="30" height="60" as="geometry" />
        </mxCell>
        <mxCell id="YSjm4-XNCETCaF8v07B--3" style="rounded=0;orthogonalLoop=1;jettySize=auto;html=1;exitX=1;exitY=0.3333333333333333;exitDx=0;exitDy=0;exitPerimeter=0;entryX=0;entryY=0.5;entryDx=0;entryDy=0;fillColor=#d5e8d4;strokeColor=#82b366;" parent="1" source="YSjm4-XNCETCaF8v07B--4" target="YSjm4-XNCETCaF8v07B--9" edge="1">
          <mxGeometry relative="1" as="geometry" />
        </mxCell>
        <mxCell id="YSjm4-XNCETCaF8v07B--4" value="Продюсер" style="shape=umlActor;verticalLabelPosition=bottom;verticalAlign=top;html=1;outlineConnect=0;fillColor=#d5e8d4;strokeColor=#82b366;" parent="1" vertex="1">
          <mxGeometry x="390" y="670" width="30" height="60" as="geometry" />
        </mxCell>
        <mxCell id="YSjm4-XNCETCaF8v07B--5" style="rounded=0;orthogonalLoop=1;jettySize=auto;html=1;exitX=1;exitY=0.3333333333333333;exitDx=0;exitDy=0;exitPerimeter=0;entryX=0;entryY=0.5;entryDx=0;entryDy=0;fillColor=#fff2cc;strokeColor=#d6b656;" parent="1" source="YSjm4-XNCETCaF8v07B--6" target="YSjm4-XNCETCaF8v07B--9" edge="1">
          <mxGeometry relative="1" as="geometry" />
        </mxCell>
        <mxCell id="YSjm4-XNCETCaF8v07B--6" value="Исполнитель" style="shape=umlActor;verticalLabelPosition=bottom;verticalAlign=top;html=1;outlineConnect=0;fillColor=#fff2cc;strokeColor=#d6b656;" parent="1" vertex="1">
          <mxGeometry x="390" y="470" width="30" height="60" as="geometry" />
        </mxCell>
        <mxCell id="YSjm4-XNCETCaF8v07B--7" style="edgeStyle=orthogonalEdgeStyle;rounded=0;orthogonalLoop=1;jettySize=auto;html=1;exitX=0;exitY=0.5;exitDx=0;exitDy=0;" parent="1" source="YSjm4-XNCETCaF8v07B--9" edge="1">
          <mxGeometry relative="1" as="geometry">
            <mxPoint x="509.8571428571429" y="605" as="targetPoint" />
          </mxGeometry>
        </mxCell>
        <mxCell id="YSjm4-XNCETCaF8v07B--8" value="" style="edgeStyle=orthogonalEdgeStyle;rounded=0;orthogonalLoop=1;jettySize=auto;html=1;" parent="1" source="YSjm4-XNCETCaF8v07B--9" target="YSjm4-XNCETCaF8v07B--11" edge="1">
          <mxGeometry relative="1" as="geometry" />
        </mxCell>
        <mxCell id="YSjm4-XNCETCaF8v07B--9" value="Зайти на форум жалоб" style="ellipse;whiteSpace=wrap;html=1;" parent="1" vertex="1">
          <mxGeometry x="510" y="575" width="120" height="60" as="geometry" />
        </mxCell>
        <mxCell id="YSjm4-XNCETCaF8v07B--10" value="" style="edgeStyle=orthogonalEdgeStyle;rounded=0;orthogonalLoop=1;jettySize=auto;html=1;" parent="1" source="YSjm4-XNCETCaF8v07B--11" target="YSjm4-XNCETCaF8v07B--13" edge="1">
          <mxGeometry relative="1" as="geometry" />
        </mxCell>
        <mxCell id="YSjm4-XNCETCaF8v07B--11" value="Добавить новую форму жалобы" style="ellipse;whiteSpace=wrap;html=1;" parent="1" vertex="1">
          <mxGeometry x="664" y="575" width="120" height="60" as="geometry" />
        </mxCell>
        <mxCell id="YSjm4-XNCETCaF8v07B--12" value="" style="edgeStyle=orthogonalEdgeStyle;rounded=0;orthogonalLoop=1;jettySize=auto;html=1;" parent="1" source="YSjm4-XNCETCaF8v07B--13" target="YSjm4-XNCETCaF8v07B--18" edge="1">
          <mxGeometry relative="1" as="geometry" />
        </mxCell>
        <mxCell id="YSjm4-XNCETCaF8v07B--13" value="Заполнить форму жалобой на пользователя&amp;nbsp;" style="ellipse;whiteSpace=wrap;html=1;" parent="1" vertex="1">
          <mxGeometry x="820" y="575" width="120" height="60" as="geometry" />
        </mxCell>
        <mxCell id="YSjm4-XNCETCaF8v07B--14" value="Указания user-id пользователя" style="ellipse;whiteSpace=wrap;html=1;" parent="1" vertex="1">
          <mxGeometry x="820" y="470" width="120" height="60" as="geometry" />
        </mxCell>
        <mxCell id="YSjm4-XNCETCaF8v07B--15" value="&amp;lt;&amp;lt;include&amp;gt;&amp;gt;" style="html=1;verticalAlign=bottom;labelBackgroundColor=none;endArrow=open;endFill=0;dashed=1;rounded=0;exitX=0.5;exitY=0;exitDx=0;exitDy=0;entryX=0.5;entryY=1;entryDx=0;entryDy=0;" parent="1" source="YSjm4-XNCETCaF8v07B--13" target="YSjm4-XNCETCaF8v07B--14" edge="1">
          <mxGeometry width="160" relative="1" as="geometry">
            <mxPoint x="920" y="530" as="sourcePoint" />
            <mxPoint x="1080" y="530" as="targetPoint" />
          </mxGeometry>
        </mxCell>
        <mxCell id="YSjm4-XNCETCaF8v07B--16" value="Указания причины" style="ellipse;whiteSpace=wrap;html=1;" parent="1" vertex="1">
          <mxGeometry x="820" y="370" width="120" height="60" as="geometry" />
        </mxCell>
        <mxCell id="YSjm4-XNCETCaF8v07B--17" value="&amp;lt;&amp;lt;include&amp;gt;&amp;gt;" style="html=1;verticalAlign=bottom;labelBackgroundColor=none;endArrow=open;endFill=0;dashed=1;rounded=0;exitX=0.5;exitY=0;exitDx=0;exitDy=0;entryX=0.5;entryY=1;entryDx=0;entryDy=0;" parent="1" source="YSjm4-XNCETCaF8v07B--14" target="YSjm4-XNCETCaF8v07B--16" edge="1">
          <mxGeometry width="160" relative="1" as="geometry">
            <mxPoint x="890" y="440" as="sourcePoint" />
            <mxPoint x="1050" y="440" as="targetPoint" />
          </mxGeometry>
        </mxCell>
        <mxCell id="YSjm4-XNCETCaF8v07B--18" value="Отправить жалобу на форум" style="ellipse;whiteSpace=wrap;html=1;" parent="1" vertex="1">
          <mxGeometry x="980" y="575" width="120" height="60" as="geometry" />
        </mxCell>
        <mxCell id="YSjm4-XNCETCaF8v07B--19" value="" style="edgeStyle=orthogonalEdgeStyle;rounded=0;orthogonalLoop=1;jettySize=auto;html=1;" parent="1" source="YSjm4-XNCETCaF8v07B--20" target="YSjm4-XNCETCaF8v07B--21" edge="1">
          <mxGeometry relative="1" as="geometry" />
        </mxCell>
        <mxCell id="YSjm4-XNCETCaF8v07B--20" value="Зайти на форум жалоб" style="ellipse;whiteSpace=wrap;html=1;" parent="1" vertex="1">
          <mxGeometry x="510" y="830" width="120" height="60" as="geometry" />
        </mxCell>
        <mxCell id="YSjm4-XNCETCaF8v07B--21" value="Просмотреть жалобы со статусом &quot;новая&quot;" style="ellipse;whiteSpace=wrap;html=1;" parent="1" vertex="1">
          <mxGeometry x="664" y="830" width="120" height="60" as="geometry" />
        </mxCell>
        <mxCell id="YSjm4-XNCETCaF8v07B--22" value="Начать обрабатывать жалобу" style="ellipse;whiteSpace=wrap;html=1;" parent="1" vertex="1">
          <mxGeometry x="860" y="830" width="120" height="60" as="geometry" />
        </mxCell>
        <mxCell id="YSjm4-XNCETCaF8v07B--23" value="&amp;lt;&amp;lt;extend&amp;gt;&amp;gt;" style="html=1;verticalAlign=bottom;labelBackgroundColor=none;endArrow=open;endFill=0;dashed=1;rounded=0;entryX=0;entryY=0.5;entryDx=0;entryDy=0;exitX=1;exitY=0.5;exitDx=0;exitDy=0;" parent="1" source="YSjm4-XNCETCaF8v07B--21" target="YSjm4-XNCETCaF8v07B--22" edge="1">
          <mxGeometry width="160" relative="1" as="geometry">
            <mxPoint x="620" y="690" as="sourcePoint" />
            <mxPoint x="780" y="690" as="targetPoint" />
          </mxGeometry>
        </mxCell>
        <mxCell id="YSjm4-XNCETCaF8v07B--24" value="" style="html=1;verticalAlign=bottom;labelBackgroundColor=none;endArrow=open;endFill=0;dashed=1;rounded=0;" parent="1" edge="1">
          <mxGeometry width="160" relative="1" as="geometry">
            <mxPoint x="820" y="860" as="sourcePoint" />
            <mxPoint x="820" y="790" as="targetPoint" />
          </mxGeometry>
        </mxCell>
        <mxCell id="YSjm4-XNCETCaF8v07B--25" value="Форма жалобы соответствует ГОСТу заполнения&amp;nbsp;" style="shape=note2;boundedLbl=1;whiteSpace=wrap;html=1;size=25;verticalAlign=top;align=center;" parent="1" vertex="1">
          <mxGeometry x="740" y="710" width="160" height="80" as="geometry" />
        </mxCell>
        <mxCell id="YSjm4-XNCETCaF8v07B--26" value="&lt;&lt;Условие&gt;&gt;" style="resizeWidth=1;part=1;strokeColor=none;fillColor=none;align=left;spacingLeft=5;" parent="YSjm4-XNCETCaF8v07B--25" vertex="1">
          <mxGeometry width="160" height="25" relative="1" as="geometry" />
        </mxCell>
        <mxCell id="YSjm4-XNCETCaF8v07B--27" value="" style="edgeStyle=orthogonalEdgeStyle;rounded=0;orthogonalLoop=1;jettySize=auto;html=1;" parent="1" source="YSjm4-XNCETCaF8v07B--28" target="YSjm4-XNCETCaF8v07B--30" edge="1">
          <mxGeometry relative="1" as="geometry" />
        </mxCell>
        <mxCell id="YSjm4-XNCETCaF8v07B--28" value="Удостовериться в нарушении" style="ellipse;whiteSpace=wrap;html=1;" parent="1" vertex="1">
          <mxGeometry x="860" y="930" width="120" height="60" as="geometry" />
        </mxCell>
        <mxCell id="YSjm4-XNCETCaF8v07B--29" value="&amp;lt;&amp;lt;include&amp;gt;&amp;gt;" style="html=1;verticalAlign=bottom;labelBackgroundColor=none;endArrow=open;endFill=0;dashed=1;rounded=0;exitX=0.5;exitY=1;exitDx=0;exitDy=0;entryX=0.5;entryY=0;entryDx=0;entryDy=0;" parent="1" source="YSjm4-XNCETCaF8v07B--22" target="YSjm4-XNCETCaF8v07B--28" edge="1">
          <mxGeometry width="160" relative="1" as="geometry">
            <mxPoint x="660" y="969.4300000000001" as="sourcePoint" />
            <mxPoint x="820" y="969.4300000000001" as="targetPoint" />
          </mxGeometry>
        </mxCell>
        <mxCell id="YSjm4-XNCETCaF8v07B--30" value="Сверить с правилами" style="ellipse;whiteSpace=wrap;html=1;" parent="1" vertex="1">
          <mxGeometry x="860" y="1020" width="120" height="60" as="geometry" />
        </mxCell>
        <mxCell id="YSjm4-XNCETCaF8v07B--31" value="Заблокировать пользователя" style="ellipse;whiteSpace=wrap;html=1;" parent="1" vertex="1">
          <mxGeometry x="1110" y="1020" width="120" height="60" as="geometry" />
        </mxCell>
        <mxCell id="YSjm4-XNCETCaF8v07B--32" value="&amp;lt;&amp;lt;extend&amp;gt;&amp;gt;" style="html=1;verticalAlign=bottom;labelBackgroundColor=none;endArrow=open;endFill=0;dashed=1;rounded=0;exitX=1;exitY=0.5;exitDx=0;exitDy=0;entryX=0;entryY=0.5;entryDx=0;entryDy=0;" parent="1" source="YSjm4-XNCETCaF8v07B--30" target="YSjm4-XNCETCaF8v07B--31" edge="1">
          <mxGeometry width="160" relative="1" as="geometry">
            <mxPoint x="940" y="1100" as="sourcePoint" />
            <mxPoint x="1100" y="1100" as="targetPoint" />
          </mxGeometry>
        </mxCell>
        <mxCell id="YSjm4-XNCETCaF8v07B--33" value="" style="html=1;verticalAlign=bottom;labelBackgroundColor=none;endArrow=open;endFill=0;dashed=1;rounded=0;" parent="1" edge="1">
          <mxGeometry width="160" relative="1" as="geometry">
            <mxPoint x="1070" y="1050" as="sourcePoint" />
            <mxPoint x="1070" y="980" as="targetPoint" />
          </mxGeometry>
        </mxCell>
        <mxCell id="YSjm4-XNCETCaF8v07B--34" value="Если предыдущие шаги подтвердили нарушение" style="shape=note2;boundedLbl=1;whiteSpace=wrap;html=1;size=25;verticalAlign=top;align=center;" parent="1" vertex="1">
          <mxGeometry x="990" y="900" width="160" height="80" as="geometry" />
        </mxCell>
        <mxCell id="YSjm4-XNCETCaF8v07B--35" value="&lt;&lt;Условие&gt;&gt;" style="resizeWidth=1;part=1;strokeColor=none;fillColor=none;align=left;spacingLeft=5;" parent="YSjm4-XNCETCaF8v07B--34" vertex="1">
          <mxGeometry width="160" height="25" relative="1" as="geometry" />
        </mxCell>
        <mxCell id="YSjm4-XNCETCaF8v07B--36" value="" style="edgeStyle=orthogonalEdgeStyle;rounded=0;orthogonalLoop=1;jettySize=auto;html=1;" parent="1" source="YSjm4-XNCETCaF8v07B--37" target="YSjm4-XNCETCaF8v07B--39" edge="1">
          <mxGeometry relative="1" as="geometry" />
        </mxCell>
        <mxCell id="YSjm4-XNCETCaF8v07B--37" value="&lt;font style=&quot;font-size: 10px;&quot;&gt;Отправления письма о причине блокировке&lt;/font&gt;" style="ellipse;html=1;whiteSpace=wrap;" parent="1" vertex="1">
          <mxGeometry x="1110" y="1140" width="120" height="60" as="geometry" />
        </mxCell>
        <mxCell id="YSjm4-XNCETCaF8v07B--38" value="&amp;lt;&amp;lt;include&amp;gt;&amp;gt;" style="html=1;verticalAlign=bottom;labelBackgroundColor=none;endArrow=open;endFill=0;dashed=1;rounded=0;exitX=0.5;exitY=1;exitDx=0;exitDy=0;entryX=0.5;entryY=0;entryDx=0;entryDy=0;" parent="1" target="YSjm4-XNCETCaF8v07B--37" edge="1">
          <mxGeometry width="160" relative="1" as="geometry">
            <mxPoint x="1170" y="1080" as="sourcePoint" />
            <mxPoint x="870" y="1150" as="targetPoint" />
          </mxGeometry>
        </mxCell>
        <mxCell id="YSjm4-XNCETCaF8v07B--39" value="&lt;span style=&quot;font-size: 10px;&quot;&gt;Удаление пользователя из БД&lt;/span&gt;" style="ellipse;html=1;whiteSpace=wrap;" parent="1" vertex="1">
          <mxGeometry x="1110" y="1240" width="120" height="60" as="geometry" />
        </mxCell>
      </root>
    </mxGraphModel>
  </diagram>
</mxfile>
